<svg class="icon" viewBox="0 0 1024 1024" version="1.1" xmlns="http://www.w3.org/2000/svg" p-id="2028" height="128" width="128"><path d="M404.210526 0C180.547368 0 0 180.547368 0 404.210526s180.547368 404.210526 404.210526 404.210527c97.010526 0 185.936842-35.031579 256-91.621053 21.557895-16.168421 37.726316-35.031579 56.589474-56.589474 56.589474-70.063158 91.621053-158.989474 91.621053-256 0-223.663158-180.547368-404.210526-404.210527-404.210526z m0 727.578947C226.357895 727.578947 80.842105 582.063158 80.842105 404.210526S226.357895 80.842105 404.210526 80.842105s323.368421 145.515789 323.368421 323.368421-145.515789 323.368421-323.368421 323.368421z" fill="#999999" p-id="2029"></path><path d="M1010.526316 1013.221053c-8.084211 8.084211-18.863158 10.778947-26.947369 10.778947-10.778947 0-21.557895-2.694737-26.947368-10.778947l-293.726316-296.421053c21.557895-16.168421 37.726316-35.031579 56.589474-56.589474l293.726316 296.421053c13.473684 16.168421 13.473684 40.421053-2.694737 56.589474z" fill="#999999" p-id="2030"></path><path d="M716.8 660.210526c-16.168421 21.557895-35.031579 37.726316-56.589474 56.589474l-2.694737-2.694737c-16.168421-16.168421-16.168421-40.421053 0-56.589474 8.084211-8.084211 18.863158-10.778947 26.947369-10.778947 10.778947 0 21.557895 2.694737 32.336842 13.473684z" fill="#999999" p-id="2031"></path></svg>