<svg class="icon" viewBox="0 0 1024 1024" version="1.1" xmlns="http://www.w3.org/2000/svg" p-id="7514" height="128" width="128"><path d="M208.979592 1024h606.040816c115.461224 0 208.979592-93.518367 208.979592-208.979592V208.979592C1024 93.518367 930.481633 0 815.020408 0H208.979592C93.518367 0 0 93.518367 0 208.979592v606.040816c0 115.461224 93.518367 208.979592 208.979592 208.979592z" fill="#FFFFFF" p-id="7515"></path><path d="M833.410612 696.560327c-8.045714-8.672653-19.748571 1.149388-61.022041 18.181224-41.482449 17.031837-119.013878 19.330612-171.258775 3.657143s-129.044898-42.631837-170.631837-146.599184c-9.717551-24.137143-20.48-78.576327 7.000817-114.729796 27.376327-36.362449 80.770612-56.21551 130.194285-24.137143 51.30449 33.541224 49.214694 89.129796 32.705306 118.17796-5.32898 8.986122-9.090612 15.046531-12.120816 19.226122 31.242449-2.089796 65.515102-11.389388 75.128163-40.228571 18.912653-56.42449-56.737959-282.540408-321.724081-263.732245-44.408163 3.134694-81.92 3.134694-113.475919 0.731428a388.743837 388.743837 0 0 0-75.337143 136.254694c-57.887347 180.349388 39.497143 360.594286 178.573062 438.125714 91.219592 50.886531 323.291429 108.878367 496.43102-114.938775 7.941224-11.389388 13.583673-21.315918 5.537959-29.988571z" fill="#0985D9" p-id="7516"></path><path d="M828.635429 726.433959c7.941224-11.284898 13.583673-21.211429 5.433469-29.988571-7.941224-8.568163-19.644082 1.149388-60.917551 18.285714-41.482449 17.031837-119.013878 19.330612-171.258776 3.657143s-129.044898-42.631837-170.736326-146.599184c-9.613061-24.137143-20.37551-78.576327 7.000816-114.729796 4.075102-5.32898 8.359184-10.24 13.270204-14.733061-74.919184 51.40898-122.462041 136.254694-105.743673 236.251429 19.435102 116.297143 100.101224 180.558367 158.61551 191.947755 35.84 6.896327 68.963265 13.270204 110.654694 5.328979 0.313469-0.10449 0.940408-0.10449 1.567347-0.313469 71.88898-19.644082 146.181224-63.947755 212.009796-149.106939h0.10449z" fill="#0F4F94" p-id="7517"></path><path d="M567.713959 139.180408c-171.885714-22.674286-352.548571 70.844082-414.82449 264.150204-10.34449 31.764898-15.986939 64.783673-16.822857 98.220408 3.030204-27.376327 10.03102-56.946939 26.644898-85.786122 50.468571-87.980408 174.706939-123.402449 251.715919-108.773878 24.032653 4.388571 47.229388 12.120816 69.067755 22.987756 57.887347-45.97551 89.338776-117.342041 84.218775-190.902858v0.10449z" fill="#34C1EF" p-id="7518"></path><path d="M841.278694 584.620408c62.589388-62.798367 49.946122-148.897959 33.332245-196.440816a397.562776 397.562776 0 0 0-90.697143-143.36 448.825469 448.825469 0 0 1-173.348572 270.210612 82.411102 82.411102 0 0 1-10.24 36.04898c-11.702857 20.37551-16.822857 25.286531-18.912653 28.003265-2.089796 2.925714-14.001633 15.673469 7.000817 28.630204 20.793469 12.852245 43.154286 26.017959 88.816326 28.316735 45.348571 2.507755 111.804082 0.940408 164.04898-51.51347v0.10449z" fill="#33C773" p-id="7519"></path><path d="M590.085224 142.691265c-7.523265-1.567347-14.942041-2.612245-22.465306-3.552653 5.12 73.560816-26.331429 144.927347-84.218775 190.902857 35.422041 17.867755 59.977143 42.213878 83.069388 69.276735 21.524898 25.913469 35.94449 56.842449 42.004898 89.965714 0 0.10449 0.20898 0.522449 0.208979 0.940409 1.880816 8.463673 2.507755 16.927347 1.880816 24.868571a449.410612 449.410612 0 0 0 173.348572-270.210612v-0.20898c-44.094694-44.512653-106.579592-85.263673-193.828572-101.982041z" fill="#3CCFA2" p-id="7520"></path></svg>