<svg class="icon" viewBox="0 0 1024 1024" version="1.1" xmlns="http://www.w3.org/2000/svg" p-id="19969" height="128" width="128"><path d="M880.96 455.13L532.9 136.43a25.523 25.523 0 0 0-18.05-7.48c-6.77 0-13.27 2.69-18.05 7.48L144.87 455.61c-7.45 7.24-9.76 18.28-5.85 27.91 3.91 9.62 13.27 15.91 23.66 15.91h60.18v375.99c0 13.29 10.78 24.07 24.07 24.07h144.42c13.29 0 24.07-10.78 24.07-24.07V623.63c0-13.3 10.78-24.07 24.07-24.07h144.43c13.29 0 24.07 10.78 24.07 24.07v251.78c0 6.38 2.53 12.51 7.05 17.02a24.044 24.044 0 0 0 17.02 7.05h144.42c13.3 0 24.07-10.78 24.07-24.07V499.42h61.62a26.465 26.465 0 0 0 23.57-16.13 26.445 26.445 0 0 0-4.78-28.16z" fill="#B2B4C8" p-id="19970"></path></svg>