<?xml version="1.0" encoding="utf-8"?>
<svg version="1.1" xmlns:xlink="http://www.w3.org/1999/xlink" width="80px" height="80px" xmlns="http://www.w3.org/2000/svg">
  <defs>
    <filter x="749px" y="383px" width="80px" height="80px" filterUnits="userSpaceOnUse" id="filter7">
      <feOffset dx="0" dy="0" in="SourceAlpha" result="shadowOffsetInner" />
      <feGaussianBlur stdDeviation="5" in="shadowOffsetInner" result="shadowGaussian" />
      <feComposite in2="shadowGaussian" operator="atop" in="SourceAlpha" result="shadowComposite" />
      <feColorMatrix type="matrix" values="0 0 0 0 0  0 0 0 0 0  0 0 0 0 0  0 0 0 0.313725490196078 0  " in="shadowComposite" />
    </filter>
    <g id="widget8">
      <path d="M 0 28.5245901639344  C -0.00467573681157279 17.0722509524932  5.92214787556027 6.52174355713162  15.4740011462361 0.978885245901638  C 15.9192219648702 0.719894983417413  16.4199268012851 0.584006525969594  16.9290009937636 0.584006525969594  C 18.5861968123167 0.584006525969594  19.9296194592578 1.99349928685733  19.9296194592578 3.73219672131148  C 19.9296194592578 4.87647378465698  19.3378405340933 5.93064826639599  18.3840008412912 6.48550819672131  C 10.7397727000665 10.9187620131498  5.99615763698594 19.3606977489072  6.00000213903609 28.5245901639344  C 6.00000213903609 42.432  16.7445010130977 53.7049180327869  29.9999996240265 53.7049180327869  C 43.2554982349553 53.7049180327869  53.999997109017 42.432  53.999997109017 28.5245901639344  C 53.999997109017 19.5588196721312  49.4999975805812 11.4145573770492  42.2969983353985 6.89626229508197  C 41.3912463495324 6.32796626093855  40.8367205510541 5.30214550186966  40.8367205510541 4.19488524590164  C 40.8367205510541 2.45653017298284  42.179878668796 1.04731495095615  43.8367481740449 1.04731495095615  C 44.3790004181162 1.04731495095615  44.9111143580822 1.20151249657762  45.3764980126913 1.49350819672131  C 54.4497280187995 7.17146331482574  60.0051046873654 17.4404042539409  59.9999964802646 28.5245901639344  C 59.9999964802646 45.9084590163934  46.5689978877268 60  29.9999996240265 60  C 13.4310013603263 60  0 45.9084590163934  0 28.5245901639344  Z " fill-rule="nonzero" fill="#ff0000" stroke="none" fill-opacity="0.898039215686275" transform="matrix(1 0 0 1 759 393 )" />
    </g>
  </defs>
  <g transform="matrix(1 0 0 1 -749 -383 )">
    <use xlink:href="#widget8" filter="url(#filter7)" />
    <use xlink:href="#widget8" />
  </g>
</svg>