<?xml version="1.0" encoding="utf-8"?>
<svg version="1.1" xmlns:xlink="http://www.w3.org/1999/xlink" width="83px" height="75px" xmlns="http://www.w3.org/2000/svg">
  <g>
    <path d="M 74.0375 9.125  C 73.3125 8.4  72.4375 8.0375  71.4 8  L 11.925 8  C 10.9 8.0375  10.025 8.4  9.3 9.125  C 8.575 9.85  8.2125 10.725  9 11.75  L 9 48.825  C 8.2125 49.85  8.575 50.725  9.3 51.45  C 10.025 52.175  10.9 52.5375  11.925 52  L 71.4125 52  C 72.4375 52.5375  73.3125 52.175  74.0375 51.45  C 74.7625 50.725  75.125 49.85  75 48.825  L 75 11.75  C 75.125 10.725  74.7625 9.85  74.0375 9.125  Z M 4.025 3.8875  C 6.2125 1.7125  8.8375 0.625000000000004  11.9125 1  L 71.4 1  C 74.475 0.625  77.1125 1.7125  79.2875 3.8875  C 81.4625 6.0625  82.55 8.675  82 11.75  L 82 48.825  C 82.55 51.9  81.4625 54.5125  79.2875 56.6875  C 77.1125 58.8625  74.475 59.95  71.4 60  L 45.375 60  L 45.375 67  L 56.525 67  C 57.55 67.3625  58.425 67.725  59.15 68.45  C 59.875 69.175  60.2375 70.05  60.2375 71.075  C 60.2375 72.1  59.875 72.975  59.15 73.7  C 58.425 74.425  57.55 74.7875  56.525 74  L 26.7875 74  C 25.7625 74.7875  24.8875 74.425  24.1625 73.7  C 23.4375 72.975  23.075 72.1  23.075 71.075  C 23.075 70.05  23.4375 69.175  24.1625 68.45  C 24.8875 67.725  25.7625 67.3625  26.7875 67  L 37.9375 67  L 37.9375 60  L 11.9125 60  C 8.8375 59.95  6.2 58.8625  4.025 56.6875  C 1.85 54.5125  0.762500000000003 51.8875  1 48.825  L 1 11.75  C 0.762500000000003 8.675  1.85 6.0625  4.025 3.8875  Z " fill-rule="nonzero" fill="#444444" stroke="none" />
  </g>
</svg>