<?xml version="1.0" encoding="utf-8"?>
<svg version="1.1" xmlns:xlink="http://www.w3.org/1999/xlink" width="55px" height="80px" xmlns="http://www.w3.org/2000/svg">
  <g transform="matrix(1 0 0 1 -55 -15 )">
    <path d="M 54 54.193548359375  C 54.4969277832031 68.4460580172283  43.1493062697109 79.9999999568527  29.1513057128906 80  L 25.8486942871094 80  C 11.8506937302891 79.9999999568527  0.503072216796874 68.4460580172283  1 54.193548359375  L 1 20.33235578125  C 0.503072216796874 9.10310575513167  9.44362251201547 0  20.4723502162388 0  L 34.5276497837612 0  C 45.5563774879845 0  54.4969277832031 9.10310575513166  54.4969277832031 20.33235578125  C 54.4969277832031 20.33235578125  54.4969277832031 20.33235578125  54 20.33235578125  L 54 54.193548359375  Z M 34.5276497837612 7  L 20.4723502162388 7  C 12.8686635951451 6.256109453125  6.6474654296875 12.5904203125  7 20.33235578125  L 7 54.193548359375  C 6.6474654296875 64.9853371875  15.2496159737723 73.74389046875  25.8486942871094 73.743890546875  L 29.1513057128906 73.743890546875  C 39.7503840262277 73.743890546875  48.3525345703125 64.985337265625  48 54.193548359375  L 48 20.33235578125  C 48.3525345703125 12.5904203125  42.1313364048549 6.25610945312501  34.5276497837612 7  Z " fill-rule="nonzero" fill="#444444" stroke="none" transform="matrix(1 0 0 1 55 15 )" />
  </g>
</svg>