<?xml version="1.0" encoding="utf-8"?>
<svg version="1.1" xmlns:xlink="http://www.w3.org/1999/xlink" width="17px" height="28px" xmlns="http://www.w3.org/2000/svg">
  <g transform="matrix(1 0 0 1 -75 -25 )">
    <path d="M 16.7711276899858 19.551124140625  C 16.7711276899858 23.8700664782769  13.3892920573201 27.371261015625  9.21758639026988 27.371261015625  L 7.78241360973011 27.371261015625  C 3.61070794267994 27.371261015625  0.228872310014202 23.8700664782769  0.228872310014202 19.551124140625  L 0.228872310014202 8.05552296875  C 0.228872310014202 3.73658063109806  3.61070794267994 0.235386093750002  7.78241360973011 0.235386093750002  L 9.21758639026988 0.235386093750002  C 13.3892920573201 0.235386093750002  16.7711276899858 3.73658063109806  16.7711276899858 8.05552296875  L 16.7711276899858 19.551124140625  Z M 9.21758639026988 6.491495625  L 7.78241360973011 6.491495625  C 6.94807241752896 6.491495625  6.27170530450994 7.19173451847851  6.27170530450994 8.05552296875  L 6.27170530450994 19.551124140625  C 6.27170530450994 20.4149125908965  6.94807241752896 21.115151484375  7.78241353426846 21.115151484375  L 9.21758639026988 21.115151484375  C 10.051927582471 21.115151484375  10.7282946954901 20.4149125908965  10.7282946954901 19.551124140625  L 10.7282946954901 8.05552296875  C 10.7282946954901 10.1408927604167  10.7282946954901 5.97015317708333  10.7282946954901 8.05552296875  C 10.7282946954901 7.19173451847851  10.051927582471 6.491495625  9.21758646573155 6.491495625  Z " fill-rule="nonzero" fill="#444444" stroke="none" transform="matrix(1 0 0 1 75 25 )" />
  </g>
</svg>