<?xml version="1.0" encoding="utf-8"?>
<svg version="1.1" xmlns:xlink="http://www.w3.org/1999/xlink" width="52px" height="31px" xmlns="http://www.w3.org/2000/svg">
  <g transform="matrix(1 0 0 1 -57 -17 )">
    <path d="M 29.1191681877367 10.9199689002404  C 29.1191681877367 12.636471602439  27.7399097736342 14.0279719898817  26.0385082682292 14.0279720327524  C 24.3371067327767 14.0279720327524  22.9578482717803 12.6364716327531  22.9578482717803 10.9199689002404  L 22.9578482717803 3.7715617963742  C 22.9581171255591 2.05525089927335  24.337296820772 0.664049842314261  26.0385082297585 0.664049842314261  C 27.7397196387451 0.664049842314261  29.118899333958 2.05525089927335  29.1191681877367 3.7715617963742  L 29.1191681877367 10.9199689002404  Z M 22.3412294306621 27.4700854780148  C 22.3412294306621 29.1863963965554  20.9622676791789 30.5778173316695  19.2610562914299 30  L 3.16460794270834 30  C 1.46339655495939 30.5778173316695  0.084434803476184 29.1863963965554  0.084434803476184 27.4700854780148  C 0.084434803476184 25.7537745594742  1.46339655495939 24.3623536243602  3.16460794270834 24  L 19.2610562914299 24  C 20.9622676791789 24.3623536243602  22.3412294306621 25.7537745594742  22.3412294306621 27.4700854780148  Z M 51.7615322005484 27.4700854780148  C 51.7615322005484 29.1863963965554  50.3825704490653 30.5778173316695  48.6813590613163 30  L 32.5849107125947 30  C 30.8836993248458 30.5778173316695  29.5047375733626 29.1863963965554  29.5047375733626 27.4700854780148  C 29.5047375733626 25.7537745594742  30.8836993248458 24.3623536243602  32.5849107125947 24  L 48.6813590613163 24  C 50.3825704490653 24.3623536243602  51.7615322005484 25.7537745594742  51.7615322005484 27.4700854780148  Z " fill-rule="nonzero" fill="#444444" stroke="none" transform="matrix(1 0 0 1 57 17 )" />
  </g>
</svg>