<?xml version="1.0" encoding="utf-8"?>
<svg version="1.1" xmlns:xlink="http://www.w3.org/1999/xlink" width="84px" height="83px" xmlns="http://www.w3.org/2000/svg">
  <g transform="matrix(1 0 0 1 -41 -14 )">
    <path d="M 83 46.667310104777  C 83.4045640024968 42.7864578093465  81.2370150567816 39.4455261708577  78.0686048425419 37.6778822361247  C 78.1407612721488 36.8042770010376  78.2291957969555 35.9307668701172  78.2291957969555 35.0384388380941  C 78.2291957969555 15.7774971111043  62.0091328354543 0.162279437866214  42 0.162279437866214  C 21.9913431741302 0.162279437866214  5.77080420304446 15.7774020998128  5.77080420304446 35.0384388380941  C 5.77080420304446 35.9340932869466  5.85876271826675 36.8042770010376  5.93139515745812 37.6778822361247  C 2.76298494321843 39.4454311595662  0.595435997503224 42.7864578093465  1 46.6672150934855  L 1 62.1682900275676  C 0.595435997503224 67.8745703977458  5.23010689755155 72.5011995694987  10.9467435828769 72.5011995694987  C 10.9467435828769 72.5011995694987  21.3074752649807 72.5182116988119  21.2980511682506 72.5011995694987  C 26.7977425551707 72.2577078265381  31.6487875793331 67.7212713970947  32 62.1682900275676  L 32 46.667310104777  C 31.6487875793331 40.9593189741007  27.014687853576 36.3309791347249  21.2980511682506 36.3309791347249  C 21.2980511682506 36.3309791347249  11.61119203125 36.3309791347249  10.9467435828769 36.3309791347249  C 10.9467435828769 18.2721949394735  24.8497090991463 5.32711850606283  42.0000951647068 5.32711850606283  C 59.1504812302674 5.32711850606283  73.1634900785277 18.161568732605  73.0534467465367 36.3309791347249  C 73.0513524718106 36.770347846578  62.7027103354542 36.3309791347249  62.7027103354542 36.3309791347249  C 56.9855976405445 36.3309791347249  52.3514027500805 40.9593189741007  52 46.667310104777  L 52 62.1683850388591  C 52.3514027500805 67.7213664083862  57.2024477742429 72.2578027449544  62.7027103354542 72.5012945807902  C 62.6931909809923 72.5183067101034  67.8780785409955 72.5012945807902  67.8780785409955 72.5012945807902  L 67.8780785409955 80.2543506364949  C 67.8780785409955 81.6779507903036  69.0368652218911 82.8375304466756  70.4658102726321 82.8375304466756  C 71.8952312399323 82.8375304466756  73.0535420042687 81.6778556861369  73.0535420042687 80.2543506364949  L 73.0535420042687 72.5012945807902  C 78.7706546991785 72.5012945807902  83.4048495896424 67.8746655019124  83 62.1683850388591  L 83 46.667310104777  Z " fill-rule="nonzero" fill="#444444" stroke="none" transform="matrix(1 0 0 1 41 14 )" />
  </g>
</svg>