<?xml version="1.0" encoding="utf-8"?>
<svg version="1.1" xmlns:xlink="http://www.w3.org/1999/xlink" width="115px" height="77px" xmlns="http://www.w3.org/2000/svg">
  <g transform="matrix(1 0 0 1 -25 -17 )">
    <path d="M 104.059076110011 66  L 104 66.0979900557719  L 104 5.88424702725455  C 104.059149866677 3.20799900031569  101.877280169279 0.866410607176681  99.0240772967841 1  L 15.1053652230123 1  C 12.4199587659583 0.866410607176681  10.0702188964528 3.04077943807218  10 5.88424702725455  L 10 66  L 0 66  L 0 72.7883896138062  L 0.335666587548481 72.7883896138062  C 1.00699976264544 74.7955388824582  2.85320287249515 76.1335893928233  5.03514632655947 76  L 109.094222436571 76  C 111.276092133969 76.1335893928233  113.122295243819 74.7955388824582  113.793702175582 72.7883896138062  L 114.129295006464 72.7883896138062  L 114.129295006464 66  L 104.059076110011 66  Z M 19 9.2294468062717  L 18.4621048551632 10  L 95 10  L 95 59  L 19 59  L 19 9.2294468062717  Z M 65.4565334619425 67.7705531937283  L 65.4566072186086 67  L 48.6727615445217 67  L 48.6727615445217 64  L 65.4565334619425 64  L 65.4565334619425 67.7705531937283  Z " fill-rule="nonzero" fill="#444444" stroke="none" transform="matrix(1 0 0 1 25 17 )" />
  </g>
</svg>