<svg class="icon" viewBox="0 0 1097 1024" version="1.1" xmlns="http://www.w3.org/2000/svg" p-id="4477" height="128" width="128"><path d="M345.375884 568.01972v0.292567a5.266214 5.266214 0 0 1-0.731418 1.755405l-0.438852 0.658277a3.986232 3.986232 0 0 0-0.767989 1.133699l-55.587817 196.751615a28.561898 28.561898 0 0 0 7.826179 28.23276 31.597285 31.597285 0 0 0 21.320854 8.155318 33.901254 33.901254 0 0 0 7.826179-0.950845l204.980076-53.35699h0.731418a3.437668 3.437668 0 0 0 1.93826-1.060557L1073.978567 226.849493a77.969228 77.969228 0 0 0 23.405397-56.684945 95.888984 95.888984 0 0 0-30.244161-68.314502l-51.199305-49.480471a103.349455 103.349455 0 0 0-71.057321-29.256746 84.369141 84.369141 0 0 0-58.732918 22.600836L345.59531 567.836865zM973.6645 93.255877l51.199305 49.480472a30.792725 30.792725 0 0 1 9.764439 21.942559 24.904805 24.904805 0 0 1-7.314186 17.371193l-57.196938 55.112395-93.7313-91.939324 56.246094-54.161551a31.048721 31.048721 0 0 1 41.032586 2.194256zM430.439873 575.992183L827.819622 192.253391l93.841013 92.049036-396.867757 382.897661z m-71.276747 159.302981l32.255562-115.052153 86.563397 83.674293zM1060.630177 402.280255a40.228025 40.228025 0 0 0-36.570932 36.570932l1.462837 470.997036A33.389261 33.389261 0 0 1 987.524884 950.844239H110.188219a29.659026 29.659026 0 0 1-36.570932-36.570933V109.712797a29.659026 29.659026 0 0 1 36.570932-36.570932h548.344558a36.570932 36.570932 0 0 0 0-73.141865L113.004181 0.40228A110.663641 110.663641 0 0 0 0.548564 108.981378v806.498769A110.736783 110.736783 0 0 0 113.004181 1023.986103h865.268257a117.575547 117.575547 0 0 0 118.8921-109.712797V438.851187a40.228025 40.228025 0 0 0-36.534361-36.570932z" fill="#FFFFFF" p-id="4478"></path></svg>