<?xml version="1.0" encoding="utf-8"?>
<svg version="1.1" xmlns:xlink="http://www.w3.org/1999/xlink" width="36px" height="36px" xmlns="http://www.w3.org/2000/svg">
  <g>
    <path d="M 35.5 18  C 35.5 8.34375  27.65625 0.5  18 0.5  C 8.34375 0.5  0.5 8.34375  0.5 18  C 0.5 27.65625  8.34375 35.5  18 35.5  C 27.65625 35.5  35.5 27.65625  35.5 18  Z M 33 18  C 33 26.28125  26.28125 33  18 33  C 9.71875 33  3 26.28125  3 18  C 3 9.71875  9.71875 3  18 3  C 26.28125 3  33 9.71875  33 18  Z M 22.4375 7.375  L 24.1875 9.15625  L 15.34375 18  L 24.1875 26.84375  L 22.4375 28.625  L 11.8125 18  L 22.4375 7.375  Z " fill-rule="nonzero" fill="#000000" stroke="none" fill-opacity="0.996078431372549" />
  </g>
</svg>