<?xml version="1.0" encoding="utf-8"?>
<svg version="1.1" xmlns:xlink="http://www.w3.org/1999/xlink" width="36px" height="36px" xmlns="http://www.w3.org/2000/svg">
  <g>
    <path d="M 3 18  C 3 9.71875  9.71875 3  18 3  C 26.28125 3  33 9.71875  33 18  C 33 26.28125  26.28125 33  18 33  C 9.71875 33  3 26.28125  3 18  Z M 35.5 18  C 35.5 8.34375  27.65625 0.5  18 0.5  C 8.34375 0.5  0.5 8.34375  0.5 18  C 0.5 27.65625  8.34375 35.5  18 35.5  C 27.65625 35.5  35.5 27.65625  35.5 18  Z M 24.21875 18  L 13.5625 7.375  L 11.78125 9.15625  L 20.65625 18  L 11.8125 26.84375  L 13.59375 28.625  L 24.21875 18  Z " fill-rule="nonzero" fill="#000000" stroke="none" fill-opacity="0.901960784313726" />
  </g>
</svg>